<?xml version="1.0" encoding="UTF-8" standalone="no"?>
<!-- Created with Inkscape (http://www.inkscape.org/) -->

<svg
   width="1135"
   height="277"
   viewBox="0 0 300.30208 73.289583"
   version="1.1"
   id="svg5"
   inkscape:version="1.2.2 (b0a8486541, 2022-12-01)"
   sodipodi:docname="logo.svg"
   inkscape:export-filename="logo.png"
   inkscape:export-xdpi="42.290749"
   inkscape:export-ydpi="42.290749"
   xmlns:inkscape="http://www.inkscape.org/namespaces/inkscape"
   xmlns:sodipodi="http://sodipodi.sourceforge.net/DTD/sodipodi-0.dtd"
   xmlns="http://www.w3.org/2000/svg"
   xmlns:svg="http://www.w3.org/2000/svg">
  <sodipodi:namedview
     id="namedview7"
     pagecolor="#ffffff"
     bordercolor="#000000"
     borderopacity="0.25"
     inkscape:showpageshadow="2"
     inkscape:pageopacity="0"
     inkscape:pagecheckerboard="0"
     inkscape:deskcolor="#d1d1d1"
     inkscape:document-units="px"
     showgrid="false"
     showguides="true"
     inkscape:zoom="0.5209506"
     inkscape:cx="304.2515"
     inkscape:cy="65.265305"
     inkscape:window-width="1920"
     inkscape:window-height="1017"
     inkscape:window-x="0"
     inkscape:window-y="0"
     inkscape:window-maximized="1"
     inkscape:current-layer="layer1" />
  <defs
     id="defs2">
    <filter
       style="color-interpolation-filters:sRGB"
       inkscape:label="Drop Shadow"
       id="filter1615"
       x="-0.017870028"
       y="-0.085813694"
       width="1.0363837"
       height="1.2063465">
      <feFlood
         flood-opacity="0.4"
         flood-color="rgb(0,0,0)"
         result="flood"
         id="feFlood1605" />
      <feComposite
         in="flood"
         in2="SourceGraphic"
         operator="in"
         result="composite1"
         id="feComposite1607" />
      <feGaussianBlur
         in="composite1"
         stdDeviation="0.4"
         result="blur"
         id="feGaussianBlur1609" />
      <feOffset
         dx="0.2"
         dy="2.3"
         result="offset"
         id="feOffset1611" />
      <feComposite
         in="SourceGraphic"
         in2="offset"
         operator="over"
         result="composite2"
         id="feComposite1613" />
    </filter>
    <filter
       style="color-interpolation-filters:sRGB"
       inkscape:label="Drop Shadow"
       id="filter1615-3"
       x="-0.017870028"
       y="-0.085813695"
       width="1.0363838"
       height="1.2063465">
      <feFlood
         flood-opacity="0.4"
         flood-color="rgb(0,0,0)"
         result="flood"
         id="feFlood1605-6" />
      <feComposite
         in="flood"
         in2="SourceGraphic"
         operator="in"
         result="composite1"
         id="feComposite1607-7" />
      <feGaussianBlur
         in="composite1"
         stdDeviation="0.4"
         result="blur"
         id="feGaussianBlur1609-5" />
      <feOffset
         dx="0.2"
         dy="2.3"
         result="offset"
         id="feOffset1611-3" />
      <feComposite
         in="SourceGraphic"
         in2="offset"
         operator="over"
         result="composite2"
         id="feComposite1613-5" />
    </filter>
  </defs>
  <g
     inkscape:label="Слой 1"
     inkscape:groupmode="layer"
     id="layer1">
    <path
       id="path1223"
       style="font-weight:normal;font-size:6.73989px;line-height:3.5;font-family:'Gotham Pro';-inkscape-font-specification:'Gotham Pro';text-align:center;letter-spacing:0.932131px;text-anchor:middle;fill:#ffffff;stroke:#ffffff;stroke-width:9.26042;stroke-linecap:round;stroke-linejoin:round;stroke-dasharray:none;filter:url(#filter1615-3)"
       d="m 46.347251,47.817951 c -2.46497,0 -4.92992,0.94464 -6.81871,2.83342 l -22.86785,22.86785 c -3.77757,3.777571 -3.77757,9.859845 0,13.63741 l 22.86785,22.868349 c 3.77757,3.77756 9.85984,3.77757 13.63741,0 L 70.873915,92.31704 H 176.15327 c -0.008,0.177656 -0.0269,0.352437 -0.0269,0.532267 v 0.05788 c 0,6.070109 4.88683,10.956933 10.95695,10.956933 h 87.45824 c 1.30682,0 2.55277,-0.23871 3.71295,-0.65474 l 6.91896,6.91895 c 3.77756,3.77758 9.85984,3.77758 13.63741,0 l 22.86785,-22.868343 c 3.77758,-3.777572 3.77757,-9.859839 0,-13.637411 L 298.81088,50.754211 c -3.77757,-3.77758 -9.85985,-3.77758 -13.63741,0 L 269.0406,66.887069 H 123.22627 c 0.024,-0.3046 0.0465,-0.60989 0.0465,-0.92087 0,-6.36065 -5.12083,-11.481468 -11.48147,-11.481468 H 58.138771 c -0.36647,0 -0.7277,0.021 -1.0852,0.0543 l -3.88762,-3.88762 c -1.88878,-1.88878 -4.35374,-2.83342 -6.8187,-2.83342 z"
       sodipodi:nodetypes="ccsccsccsssscscccccccssscscc"
       transform="matrix(0.93203565,0,0,0.93203565,-7.7131307,-39.35776)" />
    <rect
       style="fill:#4d6689;fill-opacity:1;stroke:none;stroke-width:0.635819;stroke-linecap:round;stroke-linejoin:round;stroke-dasharray:none;stroke-opacity:1"
       id="rect5142"
       width="71.408012"
       height="21.402"
       x="36.158386"
       y="11.523755"
       ry="10.701" />
    <rect
       style="fill:#776910;fill-opacity:1;stroke:none;stroke-width:0.635819;stroke-linecap:round;stroke-linejoin:round;stroke-dasharray:none;stroke-opacity:1"
       id="rect5142-8"
       width="105.74969"
       height="20.47802"
       x="156.8279"
       y="37.068893"
       ry="10.212234" />
    <rect
       style="fill:#33485d;fill-opacity:1;stroke-width:0.148374"
       id="rect4399"
       width="229.65259"
       height="23.70167"
       x="32.392609"
       y="23.083199"
       ry="11.850835" />
    <rect
       style="fill:#2858a4;fill-opacity:1;stroke-width:0.133257"
       id="rect2750"
       width="48.11808"
       height="48.11808"
       x="-23.882708"
       y="26.491596"
       rx="0"
       ry="8.9877462"
       transform="rotate(-45)" />
    <rect
       style="fill:#f7df1e;fill-opacity:1;stroke-width:0.133257"
       id="rect2750-8"
       width="48.11808"
       height="48.11808"
       x="137.9411"
       y="188.45123"
       rx="0"
       ry="8.9877462"
       transform="rotate(-45)" />
    <g
       id="g2746"
       transform="matrix(0.3944613,0,0,0.3944613,-72.986771,68.12516)"
       style="fill:#ffffff;fill-opacity:1">
      <circle
         style="fill:#ffffff;fill-opacity:1;stroke-width:0.0996756"
         id="path2556-5"
         cx="241.77673"
         cy="-81.57756"
         r="1.6496668" />
      <circle
         style="fill:#ffffff;fill-opacity:1;stroke-width:0.0996756"
         id="path2556-5-3"
         cx="247.58113"
         cy="-81.57756"
         r="1.6496668" />
      <circle
         style="fill:#ffffff;fill-opacity:1;stroke-width:0.0996756"
         id="path2556-56"
         cx="303.77817"
         cy="-81.411903"
         r="1.6496668" />
      <circle
         style="fill:#ffffff;fill-opacity:1;stroke-width:0.0996756"
         id="path2556-5-2"
         cx="309.58258"
         cy="-81.411903"
         r="1.6496668" />
      <circle
         style="fill:#ffffff;fill-opacity:1;stroke-width:0.0996756"
         id="path2556-5-27"
         cx="-115.04622"
         cy="-275.80048"
         r="1.6496668"
         transform="rotate(90)" />
      <circle
         style="fill:#ffffff;fill-opacity:1;stroke-width:0.0996756"
         id="path2556-5-3-0"
         cx="-109.24181"
         cy="-275.80048"
         r="1.6496668"
         transform="rotate(90)" />
      <circle
         style="fill:#ffffff;fill-opacity:1;stroke-width:0.0996756"
         id="path2556-1-2"
         cx="-54.672184"
         cy="-275.7132"
         r="1.6496668"
         transform="rotate(90)" />
      <circle
         style="fill:#ffffff;fill-opacity:1;stroke-width:0.0996756"
         id="path2556-5-27-6"
         cx="-48.867771"
         cy="-275.7132"
         r="1.6496668"
         transform="rotate(90)" />
      <path
         fill-rule="evenodd"
         clip-rule="evenodd"
         d="m 235.11783,-88.788069 c 0,-2.338438 -1.85965,-4.082433 -4.01324,-5.159245 -2.2366,-1.118256 -5.2293,-1.769913 -8.45926,-1.769913 -3.22999,0 -6.2227,0.651657 -8.45921,1.769913 -2.15361,1.076812 -4.01328,2.820807 -4.01328,5.159245 v 13.85833 c 0,2.33845 1.85967,4.082384 4.01328,5.159319 2.23651,1.118232 5.22922,1.769838 8.45921,1.769838 3.22996,0 6.22266,-0.651606 8.45926,-1.769838 2.15359,-1.076935 4.01324,-2.820869 4.01324,-5.159319 z m -21.99327,9.91273 c 0.37725,-0.665895 1.22294,-0.89996 1.88887,-0.522739 1.77451,1.005283 4.49714,1.696668 7.63205,1.696668 3.13474,0 5.85735,-0.691385 7.6319,-1.696668 0.66589,-0.377221 1.51167,-0.143156 1.88889,0.522739 0.37722,0.665881 0.1433,1.511523 -0.52274,1.888883 -2.28842,1.296451 -5.51033,2.056717 -8.99805,2.056717 -3.4879,0 -6.70978,-0.760266 -8.99823,-2.056717 -0.66593,-0.37736 -0.89995,-1.223002 -0.52269,-1.888883 z m 1.88875,-7.451884 c -0.66592,-0.37726 -1.5116,-0.143244 -1.88886,0.522713 -0.37726,0.665932 -0.14324,1.511674 0.52271,1.888896 2.28842,1.296451 5.51033,2.056717 8.99817,2.056717 3.48787,0 6.70965,-0.760266 8.99806,-2.056717 0.66604,-0.377222 0.89996,-1.222964 0.52275,-1.888896 -0.37723,-0.665957 -1.22287,-0.899973 -1.8889,-0.522713 -1.77441,1.005283 -4.49715,1.696667 -7.63191,1.696667 -3.13487,0 -5.8575,-0.691384 -7.63202,-1.696667 z"
         fill="#323232"
         id="path1436"
         style="fill:#ffffff;fill-opacity:1;stroke-width:1.38583" />
      <path
         fill-rule="evenodd"
         clip-rule="evenodd"
         d="m 288.0345,-141.70472 c 0,-2.33844 -1.85966,-4.08244 -4.01324,-5.15924 -2.23659,-1.11826 -5.22929,-1.76992 -8.45925,-1.76992 -3.22999,0 -6.2227,0.65166 -8.45922,1.76992 -2.1536,1.0768 -4.01328,2.8208 -4.01328,5.15924 v 13.85833 c 0,2.33845 1.85968,4.08238 4.01328,5.15932 2.23652,1.11823 5.22923,1.76983 8.45922,1.76983 3.22996,0 6.22266,-0.6516 8.45925,-1.76983 2.15358,-1.07694 4.01324,-2.82087 4.01324,-5.15932 z m -21.99327,9.91273 c 0.37726,-0.66589 1.22294,-0.89996 1.88887,-0.52274 1.77452,1.00529 4.49715,1.69667 7.63205,1.69667 3.13475,0 5.85735,-0.69138 7.63192,-1.69667 0.66589,-0.37722 1.51165,-0.14315 1.88888,0.52274 0.37723,0.66588 0.14329,1.51152 -0.52273,1.88888 -2.28844,1.29645 -5.51035,2.05672 -8.99807,2.05672 -3.4879,0 -6.70977,-0.76027 -8.99821,-2.05672 -0.66594,-0.37736 -0.89997,-1.223 -0.52271,-1.88888 z m 1.88876,-7.45189 c -0.66592,-0.37724 -1.5116,-0.14324 -1.88886,0.52272 -0.37726,0.66593 -0.14325,1.51167 0.5227,1.8889 2.28844,1.29645 5.51034,2.05671 8.99818,2.05671 3.48786,0 6.70964,-0.76026 8.99805,-2.05671 0.66606,-0.37723 0.89998,-1.22297 0.52275,-1.8889 -0.37722,-0.66596 -1.22285,-0.89996 -1.88889,-0.52272 -1.77442,1.00529 -4.49715,1.69667 -7.63191,1.69667 -3.13487,0 -5.8575,-0.69138 -7.63202,-1.69667 z"
         fill="#323232"
         id="path1436-3"
         style="fill:#ffffff;fill-opacity:1;stroke-width:1.38583" />
      <path
         fill-rule="evenodd"
         clip-rule="evenodd"
         d="m 288.03449,-35.871383 c 0,-2.33844 -1.85965,-4.08243 -4.01324,-5.15924 -2.23659,-1.11825 -5.22929,-1.76991 -8.45925,-1.76991 -3.22999,0 -6.2227,0.65166 -8.45922,1.76991 -2.1536,1.07681 -4.01327,2.8208 -4.01327,5.15924 v 13.85832 c 0,2.33845 1.85967,4.08238 4.01327,5.15932 2.23652,1.11822 5.22923,1.76982 8.45922,1.76982 3.22996,0 6.22266,-0.6516 8.45925,-1.76982 2.15359,-1.07694 4.01324,-2.82087 4.01324,-5.15932 z m -21.99326,9.91272 c 0.37725,-0.6659 1.22294,-0.89997 1.88886,-0.52273 1.77452,1.00527 4.49715,1.69666 7.63206,1.69666 3.13474,0 5.85734,-0.69139 7.63191,-1.69666 0.66588,-0.37724 1.51165,-0.14317 1.88888,0.52273 0.37723,0.66589 0.14329,1.51152 -0.52274,1.88888 -2.28842,1.29645 -5.51034,2.05672 -8.99805,2.05672 -3.48791,0 -6.70979,-0.76027 -8.99823,-2.05672 -0.66593,-0.37736 -0.89996,-1.22299 -0.52269,-1.88888 z m 1.88875,-7.45188 c -0.66592,-0.37725 -1.5116,-0.14324 -1.88886,0.52271 -0.37726,0.66594 -0.14324,1.51167 0.5227,1.8889 2.28843,1.29644 5.51034,2.05671 8.99818,2.05671 3.48786,0 6.70964,-0.76027 8.99806,-2.05671 0.66604,-0.37723 0.89997,-1.22296 0.52275,-1.8889 -0.37723,-0.66595 -1.22287,-0.89996 -1.8889,-0.52271 -1.77442,1.00529 -4.49715,1.69666 -7.63191,1.69666 -3.13487,0 -5.8575,-0.69137 -7.63202,-1.69666 z"
         fill="#323232"
         id="path1436-6"
         style="fill:#ffffff;fill-opacity:1;stroke-width:1.38583" />
      <path
         fill-rule="evenodd"
         clip-rule="evenodd"
         d="m 340.95116,-88.788047 c 0,-2.338456 -1.85965,-4.08244 -4.01324,-5.159244 -2.23659,-1.118263 -5.22929,-1.76992 -8.45926,-1.76992 -3.22999,0 -6.2227,0.651657 -8.45921,1.76992 -2.15361,1.076804 -4.01328,2.820788 -4.01328,5.159244 v 13.858313 c 0,2.338455 1.85967,4.082386 4.01328,5.15932 2.23651,1.118227 5.22922,1.769833 8.45921,1.769833 3.22997,0 6.22267,-0.651606 8.45926,-1.769833 2.15359,-1.076934 4.01324,-2.820865 4.01324,-5.15932 z m -21.99327,9.91271 c 0.37725,-0.665892 1.22294,-0.899958 1.88887,-0.522736 1.77451,1.005283 4.49715,1.696669 7.63205,1.696669 3.13475,0 5.85735,-0.691386 7.63192,-1.696669 0.66588,-0.377222 1.51165,-0.143156 1.88887,0.522736 0.37724,0.665898 0.1433,1.51153 -0.52271,1.88889 -2.28845,1.296448 -5.51036,2.056713 -8.99807,2.056713 -3.48789,0 -6.70978,-0.760265 -8.99822,-2.056713 -0.66594,-0.37736 -0.89995,-1.222992 -0.52271,-1.88889 z m 1.88876,-7.45188 c -0.66593,-0.377248 -1.5116,-0.143233 -1.88887,0.522708 -0.37726,0.665934 -0.14324,1.511678 0.52271,1.888901 2.28843,1.296448 5.51032,2.056713 8.99817,2.056713 3.48787,0 6.70965,-0.760265 8.99807,-2.056713 0.66603,-0.377223 0.89995,-1.222967 0.52274,-1.888901 -0.37722,-0.665941 -1.22286,-0.899956 -1.88888,-0.522708 -1.77443,1.005284 -4.49717,1.696662 -7.63192,1.696662 -3.13487,0 -5.8575,-0.691378 -7.63202,-1.696662 z"
         fill="#323232"
         id="path1436-7"
         style="fill:#ffffff;fill-opacity:1;stroke-width:1.38583" />
      <path
         fill-rule="evenodd"
         clip-rule="evenodd"
         d="m 269.44296,-104.8374 c 1.98974,0.66325 4.04695,1.582 6.11902,2.73366 2.07231,-1.15169 4.12952,-2.07046 6.11926,-2.73371 5.56392,-1.85468 11.3948,-1.92383 15.08906,1.77043 3.69426,3.694232 3.62508,9.525107 1.77052,15.089103 -0.66324,1.98974 -1.582,4.046951 -2.73385,6.119265 1.15161,2.07207 2.07036,4.129277 2.73361,6.118778 1.85456,5.56416 1.92373,11.395041 -1.77053,15.089301 -3.69426,3.69425 -9.52514,3.62508 -15.08905,1.77027 -1.98974,-0.66324 -4.04671,-1.58199 -6.11902,-2.7336 -2.07207,1.15161 -4.12928,2.07035 -6.11885,2.73361 -5.56399,1.85456 -11.39487,1.92373 -15.0891,-1.77053 -3.69426,-3.69426 -3.62511,-9.52513 -1.77043,-15.089049 0.6632,-1.989505 1.58193,-4.04671 2.73354,-6.118783 -1.15169,-2.072312 -2.07046,-4.129516 -2.73371,-6.119185 -1.85468,-5.56402 -1.92383,-11.394872 1.77043,-15.08913 3.69423,-3.69424 9.5251,-3.62509 15.0891,-1.77043 z m 24.47632,15.319005 c 1.67164,-5.014734 1.09316,-8.417387 -0.59358,-10.104001 -1.68674,-1.686624 -5.08921,-2.265174 -10.10411,-0.593614 -0.94019,0.313451 -1.91009,0.698983 -2.90021,1.154363 2.28958,1.657706 4.54871,3.580511 6.70579,5.737608 2.15706,2.157106 4.08007,4.416254 5.73782,6.705986 0.45524,-0.990124 0.84082,-1.959984 1.15429,-2.900342 z m -29.82234,-3.805717 c 2.15705,-2.15705 4.41611,-4.079834 6.70588,-5.737508 -0.99022,-0.455388 -1.96002,-0.84089 -2.90033,-1.15431 -5.01474,-1.67159 -8.4174,-1.09304 -10.10401,0.593607 -1.68662,1.686611 -2.26517,5.089241 -0.59361,10.103982 0.31345,0.940335 0.69895,1.910169 1.15433,2.90029 1.65773,-2.28975 3.58059,-4.548912 5.73774,-6.706061 z m 22.93047,22.930397 c 2.15707,-2.157072 4.07983,-4.41596 5.73758,-6.705777 0.45524,0.990112 0.84082,1.96003 1.15404,2.900206 1.67165,5.014674 1.09316,8.417373 -0.59358,10.104113 -1.68649,1.68649 -5.08919,2.26497 -10.10387,0.59358 -0.94042,-0.31348 -1.91008,-0.69905 -2.9002,-1.15428 2.28982,-1.65777 4.54895,-3.580763 6.70603,-5.737842 z m -22.93064,2.52e-4 c 2.1571,2.157071 4.4162,4.07983 6.70605,5.73758 -0.99017,0.45524 -1.95994,0.84082 -2.90017,1.15405 -5.01473,1.67162 -8.41739,1.09315 -10.104,-0.59359 -1.68662,-1.68649 -2.26517,-5.089188 -0.59359,-10.103862 0.31341,-0.940179 0.69886,-1.910086 1.15419,-2.900208 1.65768,2.28982 3.58047,4.548951 5.73752,6.70603 z m 9.02949,-11.465432 c 0,-1.345246 1.09047,-2.435731 2.43572,-2.435726 1.34525,-4e-6 2.43572,1.090479 2.43572,2.435724 0,1.345242 -1.09047,2.435726 -2.43572,2.435722 -1.34525,3e-6 -2.43572,-1.090479 -2.43572,-2.43572 z m 2.43572,-7.307238 c -4.03575,3e-6 -7.30717,3.271488 -7.30717,7.307241 0,4.0355 3.27142,7.307161 7.30717,7.307158 4.03575,-2e-6 7.30717,-3.271658 7.30717,-7.307158 0,-4.035754 -3.27142,-7.307244 -7.30717,-7.307241 z"
         fill="#323232"
         id="path1583"
         style="fill:#ffffff;fill-opacity:1;stroke-width:2.43572" />
    </g>
    <path
       d="m 273.9391,44.093559 c 0.86261,1.466415 2.07024,2.501524 4.05421,2.501524 1.72519,0 2.84657,-0.86259 2.84657,-2.070219 0,-1.380156 -1.12138,-1.897714 -3.01909,-2.760309 l -1.03511,-0.431299 c -3.01909,-1.293891 -5.00306,-2.846564 -5.00306,-6.210687 0,-3.105343 2.32901,-5.52061 6.03817,-5.52061 2.67406,0 4.57176,0.948853 5.86565,3.364121 l -3.19159,2.07023 c -0.69009,-1.293894 -1.46642,-1.811451 -2.67406,-1.811451 -1.20763,0 -1.98397,0.776336 -1.98397,1.811451 0,1.207634 0.77634,1.725192 2.58779,2.501527 l 1.03511,0.431299 c 3.53664,1.552671 5.52061,3.019083 5.52061,6.555728 0,3.709163 -2.93283,5.779388 -6.90075,5.779388 -3.88169,0 -6.38322,-1.811454 -7.59085,-4.226713 z m -14.66412,0.345042 c 0.69008,1.121373 1.20764,2.156482 2.67405,2.156482 1.38015,0 2.24275,-0.517544 2.24275,-2.587783 V 29.688218 h 4.14046 v 14.14656 c 0,4.312988 -2.50153,6.210694 -6.21069,6.210694 -3.36413,0 -5.26183,-1.725204 -6.21068,-3.795421 z"
       id="path4403"
       style="stroke-width:0.0862594" />
    <g
       aria-label="JS-REPOSITORY"
       id="text4884"
       style="font-weight:bold;font-size:15.4004px;line-height:3.5;font-family:'Gotham Pro';-inkscape-font-specification:'Gotham Pro Bold';text-align:center;letter-spacing:2.12988px;text-anchor:middle;fill:#ffffff;stroke-width:0.842534">
      <path
         d="m 77.814953,40.439122 q -2.156056,0 -3.326486,-1.90965 l 0.877822,-0.754619 q 0.523614,0.78542 1.078028,1.17043 0.569815,0.36961 1.386036,0.36961 0.939425,0 1.52464,-0.662217 0.585215,-0.677618 0.585215,-1.92505 v -7.222788 h 1.232032 v 7.207387 q 0,1.848048 -0.985625,2.833674 -0.924024,0.893223 -2.371662,0.893223 z"
         style="font-weight:normal;-inkscape-font-specification:'Gotham Pro';stroke:#ffffff;stroke-linecap:round;stroke-linejoin:round"
         id="path4116" />
      <path
         d="m 89.878084,40.439122 q -2.479465,0 -4.404515,-1.724845 l 0.75462,-0.893223 q 0.862422,0.78542 1.724844,1.15503 0.877823,0.36961 1.971252,0.36961 1.078028,0 1.740245,-0.508214 0.662217,-0.523613 0.662217,-1.355235 0,-0.78542 -0.585215,-1.247432 -0.585215,-0.462012 -2.217658,-0.800821 -1.92505,-0.415811 -2.772072,-1.124229 -0.847022,-0.708419 -0.847022,-2.017453 0,-1.278233 1.001026,-2.109854 1.001026,-0.831622 2.541066,-0.831622 2.140656,0 3.788499,1.324434 l -0.708419,0.939425 q -1.432237,-1.170431 -3.11088,-1.170431 -1.031827,0 -1.663244,0.508214 -0.631416,0.492812 -0.631416,1.262832 0,0.800821 0.600615,1.262833 0.616017,0.462012 2.325461,0.831622 1.832648,0.40041 2.664269,1.124229 0.847022,0.708418 0.847022,1.955851 0,1.370635 -1.031827,2.217657 -1.031826,0.831622 -2.648868,0.831622 z"
         style="font-weight:normal;-inkscape-font-specification:'Gotham Pro';stroke:#ffffff;stroke-linecap:round;stroke-linejoin:round"
         id="path4118" />
      <path
         d="m 97.6445,36.281014 v -1.247432 h 4.28131 v 1.247432 z"
         style="font-weight:normal;-inkscape-font-specification:'Gotham Pro';stroke:#ffffff;stroke-linecap:round;stroke-linejoin:round"
         id="path4120" />
      <path
         d="m 106.58137,40.285118 v -10.78028 h 4.63552 q 1.98665,0 3.06468,1.078028 0.83162,0.831622 0.83162,2.156056 0,1.293634 -0.80082,2.094454 -0.80082,0.800821 -2.12525,1.047228 l 3.31108,4.404514 h -1.49384 l -3.12628,-4.188909 H 107.798 v 4.188909 z m 1.21663,-5.282337 h 3.31109 q 1.23203,0 2.00205,-0.600616 0.77002,-0.600615 0.77002,-1.647843 0,-1.001026 -0.73922,-1.55544 -0.72382,-0.569815 -2.01745,-0.569815 H 107.798 Z"
         style="font-weight:normal;-inkscape-font-specification:'Gotham Pro';stroke:#ffffff;stroke-linecap:round;stroke-linejoin:round"
         id="path4122" />
      <path
         d="m 119.84573,40.285118 v -10.78028 h 7.79261 v 1.108829 h -6.57598 v 3.680695 h 5.88296 v 1.108829 h -5.88296 v 3.773098 h 6.65298 v 1.108829 z"
         style="font-weight:normal;-inkscape-font-specification:'Gotham Pro';stroke:#ffffff;stroke-linecap:round;stroke-linejoin:round"
         id="path4124" />
      <path
         d="m 132.29388,40.285118 v -10.78028 h 4.03491 q 1.84805,0 2.94148,0.924024 1.09342,0.924024 1.09342,2.525666 0,1.678643 -1.21663,2.602667 -1.20123,0.924024 -3.01848,0.924024 h -2.61806 v 3.803899 z m 1.21664,-4.912728 h 2.66426 q 1.33984,0 2.14066,-0.646816 0.81622,-0.662218 0.81622,-1.755646 0,-1.124229 -0.78542,-1.724845 -0.77002,-0.616016 -2.10985,-0.616016 h -2.72587 z"
         style="font-weight:normal;-inkscape-font-specification:'Gotham Pro';stroke:#ffffff;stroke-linecap:round;stroke-linejoin:round"
         id="path4126" />
      <path
         d="m 153.67425,38.83748 q -1.55544,1.632443 -3.9579,1.632443 -2.40247,0 -3.94251,-1.632443 -1.54004,-1.632442 -1.54004,-3.942502 0,-2.29466 1.55544,-3.927102 1.55544,-1.647843 3.95791,-1.647843 2.40246,0 3.9425,1.632443 1.54004,1.632442 1.54004,3.942502 0,2.29466 -1.55544,3.942502 z m -6.97638,-0.78542 q 1.21663,1.293634 3.04928,1.293634 1.83264,0 3.01847,-1.278234 1.20124,-1.293633 1.20124,-3.172482 0,-1.863448 -1.21664,-3.157082 -1.20123,-1.293634 -3.03387,-1.293634 -1.83265,0 -3.03388,1.293634 -1.18583,1.278233 -1.18583,3.157082 0,1.863448 1.20123,3.157082 z"
         style="font-weight:normal;-inkscape-font-specification:'Gotham Pro';stroke:#ffffff;stroke-linecap:round;stroke-linejoin:round"
         id="path4128" />
      <path
         d="m 163.62754,40.439122 q -2.47946,0 -4.40451,-1.724845 l 0.75462,-0.893223 q 0.86242,0.78542 1.72484,1.15503 0.87782,0.36961 1.97125,0.36961 1.07803,0 1.74025,-0.508214 0.66222,-0.523613 0.66222,-1.355235 0,-0.78542 -0.58522,-1.247432 -0.58521,-0.462012 -2.21766,-0.800821 -1.92505,-0.415811 -2.77207,-1.124229 -0.84702,-0.708419 -0.84702,-2.017453 0,-1.278233 1.00102,-2.109854 1.00103,-0.831622 2.54107,-0.831622 2.14066,0 3.7885,1.324434 l -0.70842,0.939425 q -1.43224,-1.170431 -3.11088,-1.170431 -1.03183,0 -1.66324,0.508214 -0.63142,0.492812 -0.63142,1.262832 0,0.800821 0.60062,1.262833 0.61601,0.462012 2.32546,0.831622 1.83264,0.40041 2.66427,1.124229 0.84702,0.708418 0.84702,1.955851 0,1.370635 -1.03183,2.217657 -1.03183,0.831622 -2.64887,0.831622 z"
         style="font-weight:normal;-inkscape-font-specification:'Gotham Pro';stroke:#ffffff;stroke-linecap:round;stroke-linejoin:round"
         id="path4130" />
      <path
         d="m 172.02538,40.285118 v -10.78028 h 1.21663 v 10.78028 z"
         style="font-weight:normal;-inkscape-font-specification:'Gotham Pro';stroke:#ffffff;stroke-linecap:round;stroke-linejoin:round"
         id="path4132" />
      <path
         d="m 181.37805,40.285118 v -9.656051 h -3.6191 v -1.124229 h 8.47022 v 1.124229 h -3.61909 v 9.656051 z"
         style="font-weight:normal;-inkscape-font-specification:'Gotham Pro';stroke:#ffffff;stroke-linecap:round;stroke-linejoin:round"
         id="path4134" />
      <path
         d="m 198.86213,38.83748 q -1.55544,1.632443 -3.9579,1.632443 -2.40247,0 -3.94251,-1.632443 -1.54004,-1.632442 -1.54004,-3.942502 0,-2.29466 1.55545,-3.927102 1.55544,-1.647843 3.9579,-1.647843 2.40246,0 3.9425,1.632443 1.54004,1.632442 1.54004,3.942502 0,2.29466 -1.55544,3.942502 z m -6.97638,-0.78542 q 1.21663,1.293634 3.04928,1.293634 1.83265,0 3.01848,-1.278234 1.20123,-1.293633 1.20123,-3.172482 0,-1.863448 -1.21663,-3.157082 -1.20124,-1.293634 -3.03388,-1.293634 -1.83265,0 -3.03388,1.293634 -1.18583,1.278233 -1.18583,3.157082 0,1.863448 1.20123,3.157082 z"
         style="font-weight:normal;-inkscape-font-specification:'Gotham Pro';stroke:#ffffff;stroke-linecap:round;stroke-linejoin:round"
         id="path4136" />
      <path
         d="m 205.11933,40.285118 v -10.78028 h 4.63552 q 1.98665,0 3.06468,1.078028 0.83162,0.831622 0.83162,2.156056 0,1.293634 -0.80082,2.094454 -0.80082,0.800821 -2.12526,1.047228 l 3.31109,4.404514 h -1.49384 l -3.12628,-4.188909 h -3.08008 v 4.188909 z m 1.21663,-5.282337 h 3.31108 q 1.23204,0 2.00206,-0.600616 0.77002,-0.600615 0.77002,-1.647843 0,-1.001026 -0.73922,-1.55544 -0.72382,-0.569815 -2.01745,-0.569815 h -3.32649 z"
         style="font-weight:normal;-inkscape-font-specification:'Gotham Pro';stroke:#ffffff;stroke-linecap:round;stroke-linejoin:round"
         id="path4138" />
      <path
         d="m 221.37138,40.285118 v -4.265911 l -4.48152,-6.514369 h 1.47844 l 3.6345,5.39014 3.66529,-5.39014 h 1.41684 l -4.48152,6.498969 v 4.281311 z"
         style="font-weight:normal;-inkscape-font-specification:'Gotham Pro';stroke:#ffffff;stroke-linecap:round;stroke-linejoin:round"
         id="path4140" />
    </g>
    <g
       aria-label="@e22m4u"
       id="text4884-9"
       style="font-weight:bold;font-size:6.46011px;line-height:3.5;font-family:'Gotham Pro';-inkscape-font-specification:'Gotham Pro Bold';text-align:center;letter-spacing:0.893439px;text-anchor:middle;fill:#ffffff;stroke-width:0.353425">
      <path
         d="m 63.759309,20.305762 q -1.227421,0 -2.054315,-0.826894 -0.826894,-0.820434 -0.826894,-1.989714 0,-1.16282 0.820434,-1.996174 0.826894,-0.833355 2.009094,-0.833355 1.16928,0 1.989714,0.768754 0.826894,0.762293 0.826894,1.78945 0,0.768753 -0.361766,1.17574 -0.355306,0.406987 -0.846275,0.406987 -0.342386,0 -0.57495,-0.142122 -0.232564,-0.148583 -0.329465,-0.400527 -0.458668,0.542649 -1.065918,0.542649 -0.484509,0 -0.820434,-0.323005 -0.335926,-0.329466 -0.335926,-0.852735 0,-0.665391 0.458668,-1.136979 0.465128,-0.471588 1.033617,-0.471588 0.639551,0 0.943176,0.536189 l 0.08398,-0.445748 0.432827,0.05814 -0.258404,1.466445 q -0.04522,0.251944 -0.04522,0.394067 0,0.245484 0.142123,0.387607 0.148582,0.135662 0.406986,0.135662 0.374687,0 0.639551,-0.342386 0.264865,-0.342386 0.264865,-0.988397 0,-0.917336 -0.755833,-1.627948 -0.749373,-0.710612 -1.828211,-0.710612 -1.104679,0 -1.854052,0.762293 -0.742912,0.762293 -0.742912,1.847592 0,1.091758 0.749372,1.841131 0.749373,0.755833 1.899273,0.755833 0.859194,0 1.608567,-0.439287 l 0.103362,0.174423 q -0.794594,0.484508 -1.711929,0.484508 z m -0.316546,-1.905733 q 0.413447,0 0.736453,-0.348846 0.323005,-0.355306 0.323005,-0.813974 0,-0.355306 -0.226104,-0.58787 -0.219643,-0.232564 -0.562029,-0.232564 -0.419907,0 -0.742913,0.342386 -0.316545,0.342386 -0.316545,0.833355 0,0.374686 0.219644,0.59433 0.219643,0.213183 0.568489,0.213183 z"
         style="font-weight:normal;-inkscape-font-specification:'Gotham Pro';stroke:#ffffff;stroke-linecap:round;stroke-linejoin:round"
         id="path4143" />
      <path
         d="m 68.612792,17.792779 q 0.05168,0.510349 0.381147,0.813974 0.335925,0.297165 0.794593,0.297165 0.60079,0 1.052998,-0.471588 l 0.310085,0.277785 q -0.562029,0.62663 -1.376003,0.62663 -0.704152,0 -1.18866,-0.484508 -0.478049,-0.490968 -0.478049,-1.259721 0,-0.729993 0.458668,-1.233882 0.458668,-0.510348 1.14344,-0.510348 0.717072,0 1.136979,0.503888 0.419907,0.503889 0.419907,1.266182 0,0.0969 -0.0065,0.174423 z m 0,-0.400527 h 2.151217 q -0.04522,-0.484508 -0.323006,-0.801054 -0.271324,-0.323005 -0.742912,-0.323005 -0.426368,0 -0.729993,0.316545 -0.303625,0.316546 -0.355306,0.807514 z"
         style="font-weight:normal;-inkscape-font-specification:'Gotham Pro';stroke:#ffffff;stroke-linecap:round;stroke-linejoin:round"
         id="path4145" />
      <path
         d="m 72.787973,19.259224 v -0.394067 l 1.640868,-1.447064 q 0.529729,-0.465128 0.736452,-0.775214 0.206724,-0.310085 0.206724,-0.646011 0,-0.387606 -0.264864,-0.62663 -0.264865,-0.239024 -0.646012,-0.239024 -0.368226,0 -0.652471,0.187343 -0.277784,0.187343 -0.562029,0.58787 l -0.374687,-0.271325 q 0.329466,-0.490968 0.697692,-0.723532 0.368227,-0.239024 0.930256,-0.239024 0.607251,0 1.001317,0.368226 0.400527,0.361766 0.400527,0.923796 0,0.465128 -0.251944,0.826894 -0.251945,0.361766 -0.891495,0.930256 l -1.208041,1.072378 h 2.396701 v 0.465128 z"
         style="font-weight:normal;-inkscape-font-specification:'Gotham Pro';stroke:#ffffff;stroke-linecap:round;stroke-linejoin:round"
         id="path4147" />
      <path
         d="m 77.551024,19.259224 v -0.394067 l 1.640868,-1.447064 q 0.529729,-0.465128 0.736453,-0.775214 0.206723,-0.310085 0.206723,-0.646011 0,-0.387606 -0.264864,-0.62663 -0.264865,-0.239024 -0.646011,-0.239024 -0.368227,0 -0.652472,0.187343 -0.277784,0.187343 -0.562029,0.58787 l -0.374687,-0.271325 q 0.329466,-0.490968 0.697692,-0.723532 0.368227,-0.239024 0.930256,-0.239024 0.607251,0 1.001317,0.368226 0.400527,0.361766 0.400527,0.923796 0,0.465128 -0.251944,0.826894 -0.251945,0.361766 -0.891495,0.930256 l -1.208041,1.072378 h 2.396701 v 0.465128 z"
         style="font-weight:normal;-inkscape-font-specification:'Gotham Pro';stroke:#ffffff;stroke-linecap:round;stroke-linejoin:round"
         id="path4149" />
      <path
         d="m 82.55956,19.259224 v -3.339877 h 0.497429 v 0.56203 q 0.419907,-0.633091 1.078838,-0.633091 0.749373,0 1.072378,0.665391 0.432828,-0.665391 1.17574,-0.665391 0.57495,0 0.904416,0.361766 0.335926,0.361766 0.335926,0.981937 v 2.067235 h -0.497429 v -1.950953 q 0,-0.484509 -0.232564,-0.742913 -0.226104,-0.264865 -0.633091,-0.264865 -0.394066,0 -0.658931,0.277785 -0.264864,0.277785 -0.264864,0.755833 v 1.925113 H 84.846439 V 17.29535 q 0,-0.465127 -0.232564,-0.729992 -0.226104,-0.264865 -0.62663,-0.264865 -0.400527,0 -0.665392,0.297166 -0.264864,0.297165 -0.264864,0.755832 v 1.905733 z"
         style="font-weight:normal;-inkscape-font-specification:'Gotham Pro';stroke:#ffffff;stroke-linecap:round;stroke-linejoin:round"
         id="path4151" />
      <path
         d="m 91.831763,19.259224 v -1.072378 h -2.383781 l -0.129202,-0.368227 2.558204,-3.113773 h 0.445747 v 3.055632 h 0.704152 v 0.426368 h -0.704152 v 1.072378 z M 89.93249,17.760478 h 1.899273 v -2.332099 z"
         style="font-weight:normal;-inkscape-font-specification:'Gotham Pro';stroke:#ffffff;stroke-linecap:round;stroke-linejoin:round"
         id="path4153" />
      <path
         d="m 96.052156,19.330285 q -0.59433,0 -0.936716,-0.361766 -0.342386,-0.368226 -0.342386,-0.975477 v -2.073695 h 0.497429 V 17.8703 q 0,0.471588 0.239024,0.742913 0.245484,0.264864 0.684771,0.264864 0.432828,0 0.717073,-0.290705 0.284244,-0.290704 0.284244,-0.755832 v -1.912193 h 0.490969 v 3.339877 h -0.490969 v -0.58141 q -0.406986,0.652471 -1.143439,0.652471 z"
         style="font-weight:normal;-inkscape-font-specification:'Gotham Pro';stroke:#ffffff;stroke-linecap:round;stroke-linejoin:round"
         id="path4155" />
    </g>
    <g
       aria-label="DEFINITELY TYPED"
       id="text4884-9-8"
       style="font-weight:bold;font-size:6.28182px;line-height:3.5;font-family:'Gotham Pro';-inkscape-font-specification:'Gotham Pro Bold';text-align:center;letter-spacing:0.868779px;text-anchor:middle;fill:#ffffff;stroke-width:0.343671">
      <path
         d="m 167.44432,53.754776 v -4.397274 h 1.52649 q 1.03021,0 1.68352,0.628182 0.65331,0.6219 0.65331,1.570455 0,0.942273 -0.65959,1.570455 -0.65331,0.628182 -1.67724,0.628182 z m 0.49627,-0.458573 h 1.03022 q 0.82291,0 1.31918,-0.489982 0.50254,-0.496264 0.50254,-1.250082 0,-0.747536 -0.50254,-1.2438 -0.50255,-0.496264 -1.31918,-0.496264 h -1.03022 z"
         style="font-weight:normal;-inkscape-font-specification:'Gotham Pro';stroke:#ffffff;stroke-linecap:round;stroke-linejoin:round"
         id="path4158" />
      <path
         d="m 173.22548,53.754776 v -4.397274 h 3.1786 v 0.452291 h -2.68233 v 1.501355 h 2.39965 v 0.452291 h -2.39965 v 1.539046 h 2.71374 v 0.452291 z"
         style="font-weight:normal;-inkscape-font-specification:'Gotham Pro';stroke:#ffffff;stroke-linecap:round;stroke-linejoin:round"
         id="path4160" />
      <path
         d="m 178.30308,53.754776 v -4.397274 h 3.15976 v 0.458573 h -2.66349 v 1.570455 h 2.38081 v 0.452291 h -2.38081 v 1.915955 z"
         style="font-weight:normal;-inkscape-font-specification:'Gotham Pro';stroke:#ffffff;stroke-linecap:round;stroke-linejoin:round"
         id="path4162" />
      <path
         d="m 183.33671,53.754776 v -4.397274 h 0.49626 v 4.397274 z"
         style="font-weight:normal;-inkscape-font-specification:'Gotham Pro';stroke:#ffffff;stroke-linecap:round;stroke-linejoin:round"
         id="path4164" />
      <path
         d="m 185.98953,53.754776 v -4.397274 h 0.46485 l 2.77029,3.524101 v -3.524101 h 0.4837 v 4.397274 h -0.39576 l -2.83938,-3.605765 v 3.605765 z"
         style="font-weight:normal;-inkscape-font-specification:'Gotham Pro';stroke:#ffffff;stroke-linecap:round;stroke-linejoin:round"
         id="path4166" />
      <path
         d="m 191.86492,53.754776 v -4.397274 h 0.49627 v 4.397274 z"
         style="font-weight:normal;-inkscape-font-specification:'Gotham Pro';stroke:#ffffff;stroke-linecap:round;stroke-linejoin:round"
         id="path4168" />
      <path
         d="m 195.67988,53.754776 v -3.938701 h -1.47623 v -0.458573 h 3.455 v 0.458573 h -1.47623 v 3.938701 z"
         style="font-weight:normal;-inkscape-font-specification:'Gotham Pro';stroke:#ffffff;stroke-linecap:round;stroke-linejoin:round"
         id="path4170" />
      <path
         d="m 199.45715,53.754776 v -4.397274 h 3.1786 v 0.452291 h -2.68234 v 1.501355 h 2.39965 v 0.452291 h -2.39965 v 1.539046 h 2.71375 v 0.452291 z"
         style="font-weight:normal;-inkscape-font-specification:'Gotham Pro';stroke:#ffffff;stroke-linecap:round;stroke-linejoin:round"
         id="path4172" />
      <path
         d="m 204.53474,53.754776 v -4.397274 h 0.49627 v 3.938701 h 2.47503 v 0.458573 z"
         style="font-weight:normal;-inkscape-font-specification:'Gotham Pro';stroke:#ffffff;stroke-linecap:round;stroke-linejoin:round"
         id="path4174" />
      <path
         d="m 209.85105,53.754776 v -1.740064 l -1.82801,-2.65721 h 0.60306 l 1.48251,2.198637 1.49507,-2.198637 h 0.57793 l -1.82801,2.650928 v 1.746346 z"
         style="font-weight:normal;-inkscape-font-specification:'Gotham Pro';stroke:#ffffff;stroke-linecap:round;stroke-linejoin:round"
         id="path4176" />
      <path
         d="m 217.75735,53.754776 v -3.938701 h -1.47623 v -0.458573 h 3.455 v 0.458573 h -1.47622 v 3.938701 z"
         style="font-weight:normal;-inkscape-font-specification:'Gotham Pro';stroke:#ffffff;stroke-linecap:round;stroke-linejoin:round"
         id="path4178" />
      <path
         d="m 222.91033,53.754776 v -1.740064 l -1.82801,-2.65721 h 0.60306 l 1.48251,2.198637 1.49507,-2.198637 h 0.57793 l -1.82801,2.650928 v 1.746346 z"
         style="font-weight:normal;-inkscape-font-specification:'Gotham Pro';stroke:#ffffff;stroke-linecap:round;stroke-linejoin:round"
         id="path4180" />
      <path
         d="m 226.90118,53.754776 v -4.397274 h 1.64583 q 0.75382,0 1.19983,0.376909 0.44601,0.37691 0.44601,1.030219 0,0.684718 -0.49626,1.061627 -0.48999,0.37691 -1.23124,0.37691 h -1.06791 v 1.551609 z m 0.49626,-2.003901 h 1.08675 q 0.54652,0 0.87318,-0.263836 0.33293,-0.270118 0.33293,-0.716127 0,-0.458573 -0.32037,-0.703564 -0.31409,-0.251273 -0.86061,-0.251273 h -1.11188 z"
         style="font-weight:normal;-inkscape-font-specification:'Gotham Pro';stroke:#ffffff;stroke-linecap:round;stroke-linejoin:round"
         id="path4182" />
      <path
         d="m 231.96621,53.754776 v -4.397274 h 3.1786 v 0.452291 h -2.68234 v 1.501355 h 2.39965 v 0.452291 h -2.39965 v 1.539046 h 2.71375 v 0.452291 z"
         style="font-weight:normal;-inkscape-font-specification:'Gotham Pro';stroke:#ffffff;stroke-linecap:round;stroke-linejoin:round"
         id="path4184" />
      <path
         d="m 237.0438,53.754776 v -4.397274 h 1.52649 q 1.03021,0 1.68352,0.628182 0.65331,0.6219 0.65331,1.570455 0,0.942273 -0.65959,1.570455 -0.65331,0.628182 -1.67724,0.628182 z m 0.49627,-0.458573 h 1.03022 q 0.82291,0 1.31918,-0.489982 0.50254,-0.496264 0.50254,-1.250082 0,-0.747536 -0.50254,-1.2438 -0.50255,-0.496264 -1.31918,-0.496264 h -1.03022 z"
         style="font-weight:normal;-inkscape-font-specification:'Gotham Pro';stroke:#ffffff;stroke-linecap:round;stroke-linejoin:round"
         id="path4186" />
    </g>
  </g>
  <g
     inkscape:groupmode="layer"
     id="layer2"
     inkscape:label="Слой 2" />
</svg>
