<?xml version="1.0" encoding="UTF-8" standalone="no"?>
<!-- Created with Inkscape (http://www.inkscape.org/) -->

<svg
   width="1090"
   height="230"
   viewBox="0 0 288.39583 60.854166"
   version="1.1"
   id="svg5"
   inkscape:version="1.2.2 (b0a8486541, 2022-12-01)"
   sodipodi:docname="logo.svg"
   inkscape:export-filename="logo.png"
   inkscape:export-xdpi="44.036697"
   inkscape:export-ydpi="44.036697"
   xmlns:inkscape="http://www.inkscape.org/namespaces/inkscape"
   xmlns:sodipodi="http://sodipodi.sourceforge.net/DTD/sodipodi-0.dtd"
   xmlns="http://www.w3.org/2000/svg"
   xmlns:svg="http://www.w3.org/2000/svg">
  <sodipodi:namedview
     id="namedview7"
     pagecolor="#ffffff"
     bordercolor="#000000"
     borderopacity="0.25"
     inkscape:showpageshadow="2"
     inkscape:pageopacity="0"
     inkscape:pagecheckerboard="0"
     inkscape:deskcolor="#d1d1d1"
     inkscape:document-units="px"
     showgrid="false"
     showguides="true"
     inkscape:zoom="0.5209506"
     inkscape:cx="530.7605"
     inkscape:cy="65.265305"
     inkscape:window-width="1920"
     inkscape:window-height="1017"
     inkscape:window-x="0"
     inkscape:window-y="0"
     inkscape:window-maximized="1"
     inkscape:current-layer="layer2" />
  <defs
     id="defs2" />
  <g
     inkscape:label="Слой 1"
     inkscape:groupmode="layer"
     id="layer1" />
  <g
     inkscape:groupmode="layer"
     id="layer2"
     inkscape:label="Слой 2">
    <path
       id="rect5142"
       style="fill:#4d6689;stroke-width:0.627612;stroke-linecap:round;stroke-linejoin:round;fill-opacity:1"
       d="m 41.967885,6.7615081 h 49.360571 c 5.851835,0 10.562874,4.7110449 10.562874,10.5628799 0,5.851835 -4.711039,10.562879 -10.562874,10.562879 H 41.967885 c -5.851835,0 -10.562879,-4.711044 -10.562879,-10.562879 0,-5.851835 4.711044,-10.5628799 10.562879,-10.5628799 z" />
    <path
       id="rect5142-8"
       style="fill:#776910;stroke-width:0.627612;stroke-linecap:round;stroke-linejoin:round;fill-opacity:1"
       d="m 160.59742,31.976932 h 80.46202 c 5.58456,0 10.08042,4.495868 10.08042,10.080421 v 0.05287 c 0,5.584553 -4.49586,10.080421 -10.08042,10.080421 h -80.46202 c -5.58455,0 -10.08042,-4.495868 -10.08042,-10.080421 v -0.05287 c 0,-5.584553 4.49587,-10.080421 10.08042,-10.080421 z" />
    <path
       id="rect4399"
       style="fill:#33485d;stroke-width:0.146458"
       d="M 39.385708,18.17175 H 242.67835 c 6.48062,0 11.69787,5.217251 11.69787,11.697873 0,6.480621 -5.21725,11.697872 -11.69787,11.697872 H 39.385708 c -6.480621,0 -11.697872,-5.217251 -11.697872,-11.697872 0,-6.480622 5.217251,-11.697873 11.697872,-11.697873 z" />
    <path
       id="rect2750"
       style="fill:#2858a4;stroke-width:0.131537"
       d="M 3.8075414,24.273476 24.846461,3.2345549 c 3.47539,-3.47539018 9.071145,-3.47539018 12.546534,-7e-7 L 58.431916,24.273476 c 3.47539,3.47539 3.47539,9.071145 0,12.546535 l -21.03892,21.03892 c -3.47539,3.47539 -9.071145,3.47539 -12.546535,0 L 3.8075407,36.820011 c -3.47538961,-3.47539 -3.47538961,-9.071145 7e-7,-12.546535 z" />
    <path
       id="rect2750-8"
       style="fill:#f8dd0e;stroke-width:0.131537;fill-opacity:1"
       d="M 229.80189,24.368271 250.84082,3.3293468 c 3.47538,-3.47538735 9.07114,-3.47539442 12.54653,0 l 21.03892,21.0389172 c 3.47539,3.475394 3.47538,9.071148 0,12.546535 l -21.03893,21.038923 c -3.47538,3.475387 -9.07114,3.475394 -12.54653,0 L 229.80189,36.914806 c -3.47539,-3.475394 -3.47539,-9.071148 0,-12.546535 z" />
    <g
       id="g2746"
       transform="matrix(0.38936988,0,0,0.38936988,-76.331385,62.63237)"
       style="fill:#ffffff;fill-opacity:1">
      <path
         id="path2556-5-3"
         style="stroke-width:0.0996756"
         d="m 249.2308,-81.57756 a 1.6496668,1.6496668 0 0 1 -1.64967,1.649666 1.6496668,1.6496668 0 0 1 -1.64967,-1.649666 1.6496668,1.6496668 0 0 1 1.64967,-1.649667 1.6496668,1.6496668 0 0 1 1.64967,1.649667 z" />
      <path
         id="path2556-5"
         style="stroke-width:0.0996756"
         d="m 243.4264,-81.57756 a 1.6496668,1.6496668 0 0 1 -1.64967,1.649666 1.6496668,1.6496668 0 0 1 -1.64966,-1.649666 1.6496668,1.6496668 0 0 1 1.64966,-1.649667 1.6496668,1.6496668 0 0 1 1.64967,1.649667 z" />
      <path
         id="path2556-56"
         style="stroke-width:0.0996756"
         d="m 305.42783,-81.411903 a 1.6496668,1.6496668 0 0 1 -1.64966,1.649666 1.6496668,1.6496668 0 0 1 -1.64967,-1.649666 1.6496668,1.6496668 0 0 1 1.64967,-1.649667 1.6496668,1.6496668 0 0 1 1.64966,1.649667 z" />
      <path
         id="path2556-5-2"
         style="stroke-width:0.0996756"
         d="m 311.23225,-81.411903 a 1.6496668,1.6496668 0 0 1 -1.64967,1.649666 1.6496668,1.6496668 0 0 1 -1.64967,-1.649666 1.6496668,1.6496668 0 0 1 1.64967,-1.649667 1.6496668,1.6496668 0 0 1 1.64967,1.649667 z" />
      <path
         id="path2556-5-27"
         style="stroke-width:0.0996756"
         transform="rotate(90)"
         d="m -113.39655,-275.80048 a 1.6496668,1.6496668 0 0 1 -1.64967,1.64967 1.6496668,1.6496668 0 0 1 -1.64967,-1.64967 1.6496668,1.6496668 0 0 1 1.64967,-1.64966 1.6496668,1.6496668 0 0 1 1.64967,1.64966 z" />
      <path
         id="path2556-5-3-0"
         style="stroke-width:0.0996756"
         transform="rotate(90)"
         d="m -107.59215,-275.80048 a 1.6496668,1.6496668 0 0 1 -1.64966,1.64967 1.6496668,1.6496668 0 0 1 -1.64967,-1.64967 1.6496668,1.6496668 0 0 1 1.64967,-1.64966 1.6496668,1.6496668 0 0 1 1.64966,1.64966 z" />
      <path
         id="path2556-1-2"
         style="stroke-width:0.0996756"
         transform="rotate(90)"
         d="m -53.022517,-275.7132 a 1.6496668,1.6496668 0 0 1 -1.649667,1.64967 1.6496668,1.6496668 0 0 1 -1.649667,-1.64967 1.6496668,1.6496668 0 0 1 1.649667,-1.64966 1.6496668,1.6496668 0 0 1 1.649667,1.64966 z" />
      <path
         id="path2556-5-27-6"
         style="stroke-width:0.0996756"
         transform="rotate(90)"
         d="m -47.218104,-275.7132 a 1.6496668,1.6496668 0 0 1 -1.649667,1.64967 1.6496668,1.6496668 0 0 1 -1.649667,-1.64967 1.6496668,1.6496668 0 0 1 1.649667,-1.64966 1.6496668,1.6496668 0 0 1 1.649667,1.64966 z" />
      <path
         fill-rule="evenodd"
         clip-rule="evenodd"
         d="m 235.11783,-88.788069 c 0,-2.338438 -1.85965,-4.082433 -4.01324,-5.159245 -2.2366,-1.118256 -5.2293,-1.769913 -8.45926,-1.769913 -3.22999,0 -6.2227,0.651657 -8.45921,1.769913 -2.15361,1.076812 -4.01328,2.820807 -4.01328,5.159245 v 13.85833 c 0,2.33845 1.85967,4.082384 4.01328,5.159319 2.23651,1.118232 5.22922,1.769838 8.45921,1.769838 3.22996,0 6.22266,-0.651606 8.45926,-1.769838 2.15359,-1.076935 4.01324,-2.820869 4.01324,-5.159319 z m -21.99327,9.91273 c 0.37725,-0.665895 1.22294,-0.89996 1.88887,-0.522739 1.77451,1.005283 4.49714,1.696668 7.63205,1.696668 3.13474,0 5.85735,-0.691385 7.6319,-1.696668 0.66589,-0.377221 1.51167,-0.143156 1.88889,0.522739 0.37722,0.665881 0.1433,1.511523 -0.52274,1.888883 -2.28842,1.296451 -5.51033,2.056717 -8.99805,2.056717 -3.4879,0 -6.70978,-0.760266 -8.99823,-2.056717 -0.66593,-0.37736 -0.89995,-1.223002 -0.52269,-1.888883 z m 1.88875,-7.451884 c -0.66592,-0.37726 -1.5116,-0.143244 -1.88886,0.522713 -0.37726,0.665932 -0.14324,1.511674 0.52271,1.888896 2.28842,1.296451 5.51033,2.056717 8.99817,2.056717 3.48787,0 6.70965,-0.760266 8.99806,-2.056717 0.66604,-0.377222 0.89996,-1.222964 0.52275,-1.888896 -0.37723,-0.665957 -1.22287,-0.899973 -1.8889,-0.522713 -1.77441,1.005283 -4.49715,1.696667 -7.63191,1.696667 -3.13487,0 -5.8575,-0.691384 -7.63202,-1.696667 z"
         fill="#323232"
         id="path1436"
         style="fill:#ffffff;fill-opacity:1;stroke-width:1.38583" />
      <path
         fill-rule="evenodd"
         clip-rule="evenodd"
         d="m 288.0345,-141.70472 c 0,-2.33844 -1.85966,-4.08244 -4.01324,-5.15924 -2.23659,-1.11826 -5.22929,-1.76992 -8.45925,-1.76992 -3.22999,0 -6.2227,0.65166 -8.45922,1.76992 -2.1536,1.0768 -4.01328,2.8208 -4.01328,5.15924 v 13.85833 c 0,2.33845 1.85968,4.08238 4.01328,5.15932 2.23652,1.11823 5.22923,1.76983 8.45922,1.76983 3.22996,0 6.22266,-0.6516 8.45925,-1.76983 2.15358,-1.07694 4.01324,-2.82087 4.01324,-5.15932 z m -21.99327,9.91273 c 0.37726,-0.66589 1.22294,-0.89996 1.88887,-0.52274 1.77452,1.00529 4.49715,1.69667 7.63205,1.69667 3.13475,0 5.85735,-0.69138 7.63192,-1.69667 0.66589,-0.37722 1.51165,-0.14315 1.88888,0.52274 0.37723,0.66588 0.14329,1.51152 -0.52273,1.88888 -2.28844,1.29645 -5.51035,2.05672 -8.99807,2.05672 -3.4879,0 -6.70977,-0.76027 -8.99821,-2.05672 -0.66594,-0.37736 -0.89997,-1.223 -0.52271,-1.88888 z m 1.88876,-7.45189 c -0.66592,-0.37724 -1.5116,-0.14324 -1.88886,0.52272 -0.37726,0.66593 -0.14325,1.51167 0.5227,1.8889 2.28844,1.29645 5.51034,2.05671 8.99818,2.05671 3.48786,0 6.70964,-0.76026 8.99805,-2.05671 0.66606,-0.37723 0.89998,-1.22297 0.52275,-1.8889 -0.37722,-0.66596 -1.22285,-0.89996 -1.88889,-0.52272 -1.77442,1.00529 -4.49715,1.69667 -7.63191,1.69667 -3.13487,0 -5.8575,-0.69138 -7.63202,-1.69667 z"
         fill="#323232"
         id="path1436-3"
         style="fill:#ffffff;fill-opacity:1;stroke-width:1.38583" />
      <path
         fill-rule="evenodd"
         clip-rule="evenodd"
         d="m 288.03449,-35.871383 c 0,-2.33844 -1.85965,-4.08243 -4.01324,-5.15924 -2.23659,-1.11825 -5.22929,-1.76991 -8.45925,-1.76991 -3.22999,0 -6.2227,0.65166 -8.45922,1.76991 -2.1536,1.07681 -4.01327,2.8208 -4.01327,5.15924 v 13.85832 c 0,2.33845 1.85967,4.08238 4.01327,5.15932 2.23652,1.11822 5.22923,1.76982 8.45922,1.76982 3.22996,0 6.22266,-0.6516 8.45925,-1.76982 2.15359,-1.07694 4.01324,-2.82087 4.01324,-5.15932 z m -21.99326,9.91272 c 0.37725,-0.6659 1.22294,-0.89997 1.88886,-0.52273 1.77452,1.00527 4.49715,1.69666 7.63206,1.69666 3.13474,0 5.85734,-0.69139 7.63191,-1.69666 0.66588,-0.37724 1.51165,-0.14317 1.88888,0.52273 0.37723,0.66589 0.14329,1.51152 -0.52274,1.88888 -2.28842,1.29645 -5.51034,2.05672 -8.99805,2.05672 -3.48791,0 -6.70979,-0.76027 -8.99823,-2.05672 -0.66593,-0.37736 -0.89996,-1.22299 -0.52269,-1.88888 z m 1.88875,-7.45188 c -0.66592,-0.37725 -1.5116,-0.14324 -1.88886,0.52271 -0.37726,0.66594 -0.14324,1.51167 0.5227,1.8889 2.28843,1.29644 5.51034,2.05671 8.99818,2.05671 3.48786,0 6.70964,-0.76027 8.99806,-2.05671 0.66604,-0.37723 0.89997,-1.22296 0.52275,-1.8889 -0.37723,-0.66595 -1.22287,-0.89996 -1.8889,-0.52271 -1.77442,1.00529 -4.49715,1.69666 -7.63191,1.69666 -3.13487,0 -5.8575,-0.69137 -7.63202,-1.69666 z"
         fill="#323232"
         id="path1436-6"
         style="fill:#ffffff;fill-opacity:1;stroke-width:1.38583" />
      <path
         fill-rule="evenodd"
         clip-rule="evenodd"
         d="m 340.95116,-88.788047 c 0,-2.338456 -1.85965,-4.08244 -4.01324,-5.159244 -2.23659,-1.118263 -5.22929,-1.76992 -8.45926,-1.76992 -3.22999,0 -6.2227,0.651657 -8.45921,1.76992 -2.15361,1.076804 -4.01328,2.820788 -4.01328,5.159244 v 13.858313 c 0,2.338455 1.85967,4.082386 4.01328,5.15932 2.23651,1.118227 5.22922,1.769833 8.45921,1.769833 3.22997,0 6.22267,-0.651606 8.45926,-1.769833 2.15359,-1.076934 4.01324,-2.820865 4.01324,-5.15932 z m -21.99327,9.91271 c 0.37725,-0.665892 1.22294,-0.899958 1.88887,-0.522736 1.77451,1.005283 4.49715,1.696669 7.63205,1.696669 3.13475,0 5.85735,-0.691386 7.63192,-1.696669 0.66588,-0.377222 1.51165,-0.143156 1.88887,0.522736 0.37724,0.665898 0.1433,1.51153 -0.52271,1.88889 -2.28845,1.296448 -5.51036,2.056713 -8.99807,2.056713 -3.48789,0 -6.70978,-0.760265 -8.99822,-2.056713 -0.66594,-0.37736 -0.89995,-1.222992 -0.52271,-1.88889 z m 1.88876,-7.45188 c -0.66593,-0.377248 -1.5116,-0.143233 -1.88887,0.522708 -0.37726,0.665934 -0.14324,1.511678 0.52271,1.888901 2.28843,1.296448 5.51032,2.056713 8.99817,2.056713 3.48787,0 6.70965,-0.760265 8.99807,-2.056713 0.66603,-0.377223 0.89995,-1.222967 0.52274,-1.888901 -0.37722,-0.665941 -1.22286,-0.899956 -1.88888,-0.522708 -1.77443,1.005284 -4.49717,1.696662 -7.63192,1.696662 -3.13487,0 -5.8575,-0.691378 -7.63202,-1.696662 z"
         fill="#323232"
         id="path1436-7"
         style="fill:#ffffff;fill-opacity:1;stroke-width:1.38583" />
      <path
         fill-rule="evenodd"
         clip-rule="evenodd"
         d="m 269.44296,-104.8374 c 1.98974,0.66325 4.04695,1.582 6.11902,2.73366 2.07231,-1.15169 4.12952,-2.07046 6.11926,-2.73371 5.56392,-1.85468 11.3948,-1.92383 15.08906,1.77043 3.69426,3.694232 3.62508,9.525107 1.77052,15.089103 -0.66324,1.98974 -1.582,4.046951 -2.73385,6.119265 1.15161,2.07207 2.07036,4.129277 2.73361,6.118778 1.85456,5.56416 1.92373,11.395041 -1.77053,15.089301 -3.69426,3.69425 -9.52514,3.62508 -15.08905,1.77027 -1.98974,-0.66324 -4.04671,-1.58199 -6.11902,-2.7336 -2.07207,1.15161 -4.12928,2.07035 -6.11885,2.73361 -5.56399,1.85456 -11.39487,1.92373 -15.0891,-1.77053 -3.69426,-3.69426 -3.62511,-9.52513 -1.77043,-15.089049 0.6632,-1.989505 1.58193,-4.04671 2.73354,-6.118783 -1.15169,-2.072312 -2.07046,-4.129516 -2.73371,-6.119185 -1.85468,-5.56402 -1.92383,-11.394872 1.77043,-15.08913 3.69423,-3.69424 9.5251,-3.62509 15.0891,-1.77043 z m 24.47632,15.319005 c 1.67164,-5.014734 1.09316,-8.417387 -0.59358,-10.104001 -1.68674,-1.686624 -5.08921,-2.265174 -10.10411,-0.593614 -0.94019,0.313451 -1.91009,0.698983 -2.90021,1.154363 2.28958,1.657706 4.54871,3.580511 6.70579,5.737608 2.15706,2.157106 4.08007,4.416254 5.73782,6.705986 0.45524,-0.990124 0.84082,-1.959984 1.15429,-2.900342 z m -29.82234,-3.805717 c 2.15705,-2.15705 4.41611,-4.079834 6.70588,-5.737508 -0.99022,-0.455388 -1.96002,-0.84089 -2.90033,-1.15431 -5.01474,-1.67159 -8.4174,-1.09304 -10.10401,0.593607 -1.68662,1.686611 -2.26517,5.089241 -0.59361,10.103982 0.31345,0.940335 0.69895,1.910169 1.15433,2.90029 1.65773,-2.28975 3.58059,-4.548912 5.73774,-6.706061 z m 22.93047,22.930397 c 2.15707,-2.157072 4.07983,-4.41596 5.73758,-6.705777 0.45524,0.990112 0.84082,1.96003 1.15404,2.900206 1.67165,5.014674 1.09316,8.417373 -0.59358,10.104113 -1.68649,1.68649 -5.08919,2.26497 -10.10387,0.59358 -0.94042,-0.31348 -1.91008,-0.69905 -2.9002,-1.15428 2.28982,-1.65777 4.54895,-3.580763 6.70603,-5.737842 z m -22.93064,2.52e-4 c 2.1571,2.157071 4.4162,4.07983 6.70605,5.73758 -0.99017,0.45524 -1.95994,0.84082 -2.90017,1.15405 -5.01473,1.67162 -8.41739,1.09315 -10.104,-0.59359 -1.68662,-1.68649 -2.26517,-5.089188 -0.59359,-10.103862 0.31341,-0.940179 0.69886,-1.910086 1.15419,-2.900208 1.65768,2.28982 3.58047,4.548951 5.73752,6.70603 z m 9.02949,-11.465432 c 0,-1.345246 1.09047,-2.435731 2.43572,-2.435726 1.34525,-4e-6 2.43572,1.090479 2.43572,2.435724 0,1.345242 -1.09047,2.435726 -2.43572,2.435722 -1.34525,3e-6 -2.43572,-1.090479 -2.43572,-2.43572 z m 2.43572,-7.307238 c -4.03575,3e-6 -7.30717,3.271488 -7.30717,7.307241 0,4.0355 3.27142,7.307161 7.30717,7.307158 4.03575,-2e-6 7.30717,-3.271658 7.30717,-7.307158 0,-4.035754 -3.27142,-7.307244 -7.30717,-7.307241 z"
         fill="#323232"
         id="path1583"
         style="fill:#ffffff;fill-opacity:1;stroke-width:2.43572" />
    </g>
    <path
       d="m 266.11661,38.910928 c 0.85148,1.447488 2.04352,2.469236 4.00188,2.469236 1.70292,0 2.80983,-0.851456 2.80983,-2.043498 0,-1.362342 -1.10691,-1.87322 -2.98012,-2.72468 l -1.02175,-0.425733 c -2.98012,-1.27719 -4.93848,-2.809822 -4.93848,-6.130524 0,-3.065261 2.29895,-5.449354 5.96023,-5.449354 2.63954,0 4.51275,0.936606 5.78994,3.3207 l -3.1504,2.043509 c -0.68118,-1.277193 -1.44749,-1.788071 -2.63954,-1.788071 -1.19204,0 -1.95836,0.766316 -1.95836,1.788071 0,1.192047 0.76632,1.702924 2.55438,2.469239 l 1.02175,0.425731 c 3.491,1.532631 5.44936,2.980116 5.44936,6.471112 0,3.661288 -2.89497,5.704792 -6.81168,5.704792 -3.83159,0 -6.30083,-1.788073 -7.49287,-4.172157 z m -14.47484,0.340589 c 0.68117,1.106899 1.19205,2.128647 2.63953,2.128647 1.36234,0 2.2138,-0.510863 2.2138,-2.554382 V 24.691521 h 4.08702 v 13.963966 c 0,4.25732 -2.46924,6.130531 -6.13052,6.130531 -3.32071,0 -5.19392,-1.702936 -6.13053,-3.746432 z"
       id="path4403"
       style="stroke-width:0.0851461" />
    <g
       aria-label="JS-REPOSITORY"
       id="text4884"
       style="font-weight:bold;font-size:15.2016px;line-height:3.5;font-family:'Gotham Pro';-inkscape-font-specification:'Gotham Pro Bold';text-align:center;letter-spacing:2.10239px;text-anchor:middle;fill:#ffffff;stroke-width:0.831659"
       transform="translate(-0.37569954,-0.24093428)">
      <path
         d="m 72.899693,35.544594 q -2.128224,0 -3.283545,-1.884998 l 0.866491,-0.744879 q 0.516854,0.775282 1.064112,1.155322 0.562459,0.364838 1.368144,0.364838 0.927298,0 1.504958,-0.653668 0.577661,-0.668871 0.577661,-1.9002 v -7.129551 h 1.216128 v 7.114349 q 0,1.824192 -0.972902,2.797094 -0.912096,0.881693 -2.341047,0.881693 z"
         style="font-weight:normal;-inkscape-font-specification:'Gotham Pro';stroke:#ffffff;stroke-linecap:round;stroke-linejoin:round"
         id="path6763" />
      <path
         d="m 84.807108,35.544594 q -2.447458,0 -4.347658,-1.702579 l 0.744879,-0.881693 q 0.851289,0.775282 1.702579,1.14012 0.866491,0.364839 1.945805,0.364839 1.064112,0 1.71778,-0.501653 0.653669,-0.516855 0.653669,-1.337741 0,-0.775282 -0.577661,-1.23133 -0.57766,-0.456048 -2.18903,-0.790483 -1.9002,-0.410443 -2.736288,-1.109717 -0.836088,-0.699273 -0.836088,-1.991409 0,-1.261733 0.988104,-2.08262 0.988104,-0.820886 2.508264,-0.820886 2.113022,0 3.739594,1.307338 l -0.699274,0.927297 q -1.413749,-1.155321 -3.070723,-1.155321 -1.018507,0 -1.641773,0.501652 -0.623266,0.486452 -0.623266,1.246532 0,0.790483 0.592863,1.246531 0.608064,0.456048 2.295441,0.820886 1.808991,0.395242 2.629877,1.109717 0.836088,0.699274 0.836088,1.930603 0,1.352943 -1.018507,2.189031 -1.018507,0.820886 -2.614675,0.820886 z"
         style="font-weight:normal;-inkscape-font-specification:'Gotham Pro';stroke:#ffffff;stroke-linecap:round;stroke-linejoin:round"
         id="path6765" />
      <path
         d="m 92.473273,31.440162 v -1.23133 h 4.226045 v 1.23133 z"
         style="font-weight:normal;-inkscape-font-specification:'Gotham Pro';stroke:#ffffff;stroke-linecap:round;stroke-linejoin:round"
         id="path6767" />
      <path
         d="m 101.29478,35.392578 v -10.64112 h 4.57569 q 1.961,0 3.02511,1.064112 0.82089,0.820886 0.82089,2.128224 0,1.276934 -0.79048,2.067418 -0.79049,0.790483 -2.09782,1.033709 l 3.26834,4.347657 h -1.47455 l -3.08593,-4.134835 h -3.04032 v 4.134835 z m 1.20093,-5.214149 h 3.26834 q 1.21613,0 1.97621,-0.592862 0.76008,-0.592863 0.76008,-1.626571 0,-0.988104 -0.72967,-1.535362 -0.71448,-0.562459 -1.99141,-0.562459 h -3.28355 z"
         style="font-weight:normal;-inkscape-font-specification:'Gotham Pro';stroke:#ffffff;stroke-linecap:round;stroke-linejoin:round"
         id="path6769" />
      <path
         d="m 114.38792,35.392578 v -10.64112 h 7.69201 v 1.094515 h -6.49108 v 3.633183 h 5.80701 v 1.094515 h -5.80701 v 3.724392 h 6.56709 v 1.094515 z"
         style="font-weight:normal;-inkscape-font-specification:'Gotham Pro';stroke:#ffffff;stroke-linecap:round;stroke-linejoin:round"
         id="path6771" />
      <path
         d="m 126.67539,35.392578 v -10.64112 h 3.98282 q 1.82419,0 2.9035,0.912096 1.07932,0.912096 1.07932,2.493062 0,1.656975 -1.20093,2.569071 -1.18572,0.912096 -2.97951,0.912096 h -2.58428 v 3.754795 z m 1.20092,-4.84931 h 2.62988 q 1.32254,0 2.11302,-0.638468 0.80569,-0.653668 0.80569,-1.732982 0,-1.109717 -0.77528,-1.702579 -0.76008,-0.608064 -2.08262,-0.608064 h -2.69069 z"
         style="font-weight:normal;-inkscape-font-specification:'Gotham Pro';stroke:#ffffff;stroke-linecap:round;stroke-linejoin:round"
         id="path6773" />
      <path
         d="m 147.77977,33.963628 q -1.53537,1.611369 -3.90682,1.611369 -2.37145,0 -3.89161,-1.611369 -1.52016,-1.61137 -1.52016,-3.89161 0,-2.265038 1.53537,-3.876408 1.53536,-1.626571 3.90681,-1.626571 2.37145,0 3.89161,1.611369 1.52016,1.61137 1.52016,3.89161 0,2.265039 -1.53536,3.89161 z m -6.88633,-0.775282 q 1.20093,1.276935 3.00992,1.276935 1.80899,0 2.97951,-1.261733 1.18573,-1.276935 1.18573,-3.13153 0,-1.839394 -1.20093,-3.116328 -1.18573,-1.276934 -2.99472,-1.276934 -1.80899,0 -2.99471,1.276934 -1.17052,1.261733 -1.17052,3.116328 0,1.839394 1.18572,3.116328 z"
         style="font-weight:normal;-inkscape-font-specification:'Gotham Pro';stroke:#ffffff;stroke-linecap:round;stroke-linejoin:round"
         id="path6775" />
      <path
         d="m 157.60458,35.544594 q -2.44746,0 -4.34766,-1.702579 l 0.74488,-0.881693 q 0.85129,0.775282 1.70258,1.14012 0.86649,0.364839 1.9458,0.364839 1.06411,0 1.71778,-0.501653 0.65367,-0.516855 0.65367,-1.337741 0,-0.775282 -0.57766,-1.23133 -0.57766,-0.456048 -2.18903,-0.790483 -1.9002,-0.410443 -2.73629,-1.109717 -0.83609,-0.699273 -0.83609,-1.991409 0,-1.261733 0.98811,-2.08262 0.9881,-0.820886 2.50826,-0.820886 2.11302,0 3.73959,1.307338 l -0.69927,0.927297 q -1.41375,-1.155321 -3.07072,-1.155321 -1.01851,0 -1.64177,0.501652 -0.62327,0.486452 -0.62327,1.246532 0,0.790483 0.59286,1.246531 0.60807,0.456048 2.29544,0.820886 1.80899,0.395242 2.62988,1.109717 0.83609,0.699274 0.83609,1.930603 0,1.352943 -1.01851,2.189031 -1.01851,0.820886 -2.61467,0.820886 z"
         style="font-weight:normal;-inkscape-font-specification:'Gotham Pro';stroke:#ffffff;stroke-linecap:round;stroke-linejoin:round"
         id="path6777" />
      <path
         d="m 165.89401,35.392578 v -10.64112 h 1.20093 v 10.64112 z"
         style="font-weight:normal;-inkscape-font-specification:'Gotham Pro';stroke:#ffffff;stroke-linecap:round;stroke-linejoin:round"
         id="path6779" />
      <path
         d="m 175.12596,35.392578 v -9.531403 h -3.57238 v -1.109717 h 8.36088 v 1.109717 h -3.57238 v 9.531403 z"
         style="font-weight:normal;-inkscape-font-specification:'Gotham Pro';stroke:#ffffff;stroke-linecap:round;stroke-linejoin:round"
         id="path6781" />
      <path
         d="m 192.38434,33.963628 q -1.53536,1.611369 -3.90681,1.611369 -2.37145,0 -3.89161,-1.611369 -1.52016,-1.61137 -1.52016,-3.89161 0,-2.265038 1.53536,-3.876408 1.53536,-1.626571 3.90681,-1.626571 2.37145,0 3.89161,1.611369 1.52016,1.61137 1.52016,3.89161 0,2.265039 -1.53536,3.89161 z m -6.88632,-0.775282 q 1.20092,1.276935 3.00991,1.276935 1.80899,0 2.97952,-1.261733 1.18572,-1.276935 1.18572,-3.13153 0,-1.839394 -1.20092,-3.116328 -1.18573,-1.276934 -2.99472,-1.276934 -1.80899,0 -2.99471,1.276934 -1.17053,1.261733 -1.17053,3.116328 0,1.839394 1.18573,3.116328 z"
         style="font-weight:normal;-inkscape-font-specification:'Gotham Pro';stroke:#ffffff;stroke-linecap:round;stroke-linejoin:round"
         id="path6783" />
      <path
         d="m 198.56077,35.392578 v -10.64112 h 4.57568 q 1.96101,0 3.02512,1.064112 0.82088,0.820886 0.82088,2.128224 0,1.276934 -0.79048,2.067418 -0.79048,0.790483 -2.09782,1.033709 l 3.26834,4.347657 h -1.47455 l -3.08593,-4.134835 h -3.04032 v 4.134835 z m 1.20092,-5.214149 h 3.26835 q 1.21613,0 1.97621,-0.592862 0.76008,-0.592863 0.76008,-1.626571 0,-0.988104 -0.72968,-1.535362 -0.71448,-0.562459 -1.99141,-0.562459 h -3.28355 z"
         style="font-weight:normal;-inkscape-font-specification:'Gotham Pro';stroke:#ffffff;stroke-linecap:round;stroke-linejoin:round"
         id="path6785" />
      <path
         d="m 214.60303,35.392578 v -4.210843 l -4.42367,-6.430277 h 1.45936 l 3.58758,5.32056 3.61798,-5.32056 h 1.39854 l -4.42366,6.415075 v 4.226045 z"
         style="font-weight:normal;-inkscape-font-specification:'Gotham Pro';stroke:#ffffff;stroke-linecap:round;stroke-linejoin:round"
         id="path6787" />
    </g>
    <g
       aria-label="@e22m4u"
       id="text4884-9"
       style="font-weight:bold;font-size:6.37672px;line-height:3.5;font-family:'Gotham Pro';-inkscape-font-specification:'Gotham Pro Bold';text-align:center;letter-spacing:0.881907px;text-anchor:middle;fill:#ffffff;stroke-width:0.348863"
       transform="translate(-0.37569954,-0.24093428)">
      <path
         d="m 59.025395,15.671106 q -1.211577,0 -2.027797,-0.81622 -0.81622,-0.809843 -0.81622,-1.96403 0,-1.147809 0.809843,-1.970406 0.816221,-0.822597 1.98316,-0.822597 1.154187,0 1.96403,0.75883 0.81622,0.752453 0.81622,1.766351 0,0.75883 -0.357096,1.160563 -0.35072,0.401734 -0.83535,0.401734 -0.337967,0 -0.567528,-0.140288 -0.229562,-0.146665 -0.325213,-0.395357 -0.452747,0.535645 -1.052159,0.535645 -0.478254,0 -0.809843,-0.318836 -0.33159,-0.325213 -0.33159,-0.841727 0,-0.656803 0.452747,-1.122303 0.459124,-0.465501 1.020275,-0.465501 0.631296,0 0.931002,0.529268 l 0.0829,-0.439994 0.42724,0.05739 -0.255069,1.447515 q -0.04464,0.248692 -0.04464,0.38898 0,0.242316 0.140288,0.382603 0.146665,0.133912 0.401734,0.133912 0.369849,0 0.631295,-0.337967 0.261445,-0.337966 0.261445,-0.975638 0,-0.905494 -0.746076,-1.606933 -0.739699,-0.701439 -1.804612,-0.701439 -1.090419,0 -1.830118,0.752453 -0.733323,0.752453 -0.733323,1.823741 0,1.077666 0.739699,1.817366 0.7397,0.746076 1.874756,0.746076 0.848104,0 1.587803,-0.433617 l 0.102028,0.172171 q -0.784337,0.478254 -1.689831,0.478255 z m -0.312459,-1.881132 q 0.40811,0 0.726946,-0.344343 0.318836,-0.350719 0.318836,-0.803467 0,-0.350719 -0.223185,-0.580281 -0.216809,-0.229562 -0.554775,-0.229562 -0.414487,0 -0.733323,0.337966 -0.312459,0.337966 -0.312459,0.822597 0,0.36985 0.216808,0.586658 0.216809,0.210432 0.561152,0.210432 z"
         style="font-weight:normal;-inkscape-font-specification:'Gotham Pro';stroke:#ffffff;stroke-linecap:round;stroke-linejoin:round"
         id="path6790" />
      <path
         d="m 63.816229,13.190562 q 0.05101,0.503761 0.376226,0.803467 0.331589,0.293329 0.784337,0.293329 0.593035,0 1.039405,-0.4655 l 0.306082,0.274199 q -0.554774,0.618541 -1.358241,0.618541 -0.695062,0 -1.173316,-0.478254 -0.471878,-0.48463 -0.471878,-1.24346 0,-0.720569 0.452748,-1.217954 0.452747,-0.50376 1.128679,-0.50376 0.707816,0 1.122303,0.497384 0.414486,0.497384 0.414486,1.249837 0,0.09565 -0.0064,0.172171 z m 0,-0.395356 h 2.123447 q -0.04464,-0.478254 -0.318836,-0.790714 -0.267822,-0.318836 -0.733322,-0.318836 -0.420864,0 -0.72057,0.31246 -0.299706,0.312459 -0.350719,0.79709 z"
         style="font-weight:normal;-inkscape-font-specification:'Gotham Pro';stroke:#ffffff;stroke-linecap:round;stroke-linejoin:round"
         id="path6792" />
      <path
         d="m 67.937515,14.638078 v -0.38898 l 1.619687,-1.428385 q 0.522891,-0.459124 0.726946,-0.765207 0.204055,-0.306082 0.204055,-0.637672 0,-0.382603 -0.261445,-0.618542 -0.261446,-0.235938 -0.637672,-0.235938 -0.363473,0 -0.644049,0.184925 -0.274199,0.184924 -0.554774,0.580281 l -0.36985,-0.267822 q 0.325213,-0.484631 0.688686,-0.714193 0.363473,-0.235938 0.918247,-0.235938 0.599412,0 0.988392,0.363473 0.395356,0.357096 0.395356,0.911871 0,0.459123 -0.248692,0.81622 -0.248692,0.357096 -0.879987,0.918247 l -1.192447,1.058536 h 2.365764 v 0.459124 z"
         style="font-weight:normal;-inkscape-font-specification:'Gotham Pro';stroke:#ffffff;stroke-linecap:round;stroke-linejoin:round"
         id="path6794" />
      <path
         d="m 72.639084,14.638078 v -0.38898 l 1.619687,-1.428385 q 0.522891,-0.459124 0.726946,-0.765207 0.204055,-0.306082 0.204055,-0.637672 0,-0.382603 -0.261445,-0.618542 -0.261446,-0.235938 -0.637672,-0.235938 -0.363473,0 -0.644049,0.184925 -0.274199,0.184924 -0.554775,0.580281 l -0.36985,-0.267822 q 0.325213,-0.484631 0.688686,-0.714193 0.363473,-0.235938 0.918248,-0.235938 0.599412,0 0.988391,0.363473 0.395357,0.357096 0.395357,0.911871 0,0.459123 -0.248692,0.81622 -0.248692,0.357096 -0.879987,0.918247 l -1.192447,1.058536 H 75.7573 v 0.459124 z"
         style="font-weight:normal;-inkscape-font-specification:'Gotham Pro';stroke:#ffffff;stroke-linecap:round;stroke-linejoin:round"
         id="path6796" />
      <path
         d="m 77.582968,14.638078 v -3.296764 h 0.491007 v 0.554774 q 0.414487,-0.624918 1.064913,-0.624918 0.739699,0 1.058535,0.656802 0.42724,-0.656802 1.160563,-0.656802 0.567528,0 0.892741,0.357096 0.331589,0.357096 0.331589,0.969261 v 2.040551 h -0.491007 v -1.92577 q 0,-0.478254 -0.229562,-0.733322 -0.223185,-0.261446 -0.624918,-0.261446 -0.38898,0 -0.650426,0.274199 -0.261445,0.274199 -0.261445,0.746076 v 1.900263 h -0.484631 v -1.938523 q 0,-0.459124 -0.229562,-0.720569 -0.223185,-0.261446 -0.618542,-0.261446 -0.395356,0 -0.656802,0.293329 -0.261446,0.293329 -0.261446,0.746076 v 1.881133 z"
         style="font-weight:normal;-inkscape-font-specification:'Gotham Pro';stroke:#ffffff;stroke-linecap:round;stroke-linejoin:round"
         id="path6798" />
      <path
         d="m 86.73548,14.638078 v -1.058536 h -2.35301 l -0.127534,-0.363473 2.525181,-3.073579 h 0.439994 v 3.016189 h 0.695062 v 0.420863 h -0.695062 v 1.058536 z m -1.874756,-1.479399 h 1.874756 v -2.301996 z"
         style="font-weight:normal;-inkscape-font-specification:'Gotham Pro';stroke:#ffffff;stroke-linecap:round;stroke-linejoin:round"
         id="path6800" />
      <path
         d="m 90.901395,14.708222 q -0.586659,0 -0.924625,-0.357097 -0.337966,-0.363473 -0.337966,-0.962884 v -2.046927 h 0.491007 v 1.925769 q 0,0.465501 0.235939,0.733323 0.242315,0.261445 0.675932,0.261445 0.427241,0 0.707816,-0.286952 0.280576,-0.286953 0.280576,-0.746076 v -1.887509 h 0.484631 v 3.296764 h -0.484631 v -0.573905 q -0.401733,0.644049 -1.128679,0.644049 z"
         style="font-weight:normal;-inkscape-font-specification:'Gotham Pro';stroke:#ffffff;stroke-linecap:round;stroke-linejoin:round"
         id="path6802" />
    </g>
    <g
       aria-label="DEFINITELY TYPED"
       id="text4884-9-8"
       style="font-weight:bold;font-size:6.20074px;line-height:3.5;font-family:'Gotham Pro';-inkscape-font-specification:'Gotham Pro Bold';text-align:center;letter-spacing:0.857566px;text-anchor:middle;fill:#ffffff;stroke-width:0.339236"
       transform="translate(-0.37569954,-0.24093428)">
      <path
         d="m 161.37209,48.688389 v -4.340518 h 1.50677 q 1.01693,0 1.6618,0.620074 0.64488,0.613873 0.64488,1.550185 0,0.930111 -0.65108,1.550185 -0.64487,0.620074 -1.6556,0.620074 z m 0.48985,-0.452654 h 1.01692 q 0.8123,0 1.30216,-0.483658 0.49606,-0.489858 0.49606,-1.233947 0,-0.737888 -0.49606,-1.227747 -0.49606,-0.489858 -1.30216,-0.489858 h -1.01692 z"
         style="font-weight:normal;-inkscape-font-specification:'Gotham Pro';stroke:#ffffff;stroke-linecap:round;stroke-linejoin:round"
         id="path6805" />
      <path
         d="m 167.07863,48.688389 v -4.340518 h 3.13757 v 0.446453 h -2.64771 v 1.481977 h 2.36868 v 0.446453 h -2.36868 v 1.519182 h 2.67872 v 0.446453 z"
         style="font-weight:normal;-inkscape-font-specification:'Gotham Pro';stroke:#ffffff;stroke-linecap:round;stroke-linejoin:round"
         id="path6807" />
      <path
         d="m 172.09069,48.688389 v -4.340518 h 3.11897 v 0.452654 h -2.62911 v 1.550185 h 2.35008 v 0.446453 h -2.35008 v 1.891226 z"
         style="font-weight:normal;-inkscape-font-specification:'Gotham Pro';stroke:#ffffff;stroke-linecap:round;stroke-linejoin:round"
         id="path6809" />
      <path
         d="m 177.05935,48.688389 v -4.340518 h 0.48985 v 4.340518 z"
         style="font-weight:normal;-inkscape-font-specification:'Gotham Pro';stroke:#ffffff;stroke-linecap:round;stroke-linejoin:round"
         id="path6811" />
      <path
         d="m 179.67792,48.688389 v -4.340518 h 0.45886 l 2.73453,3.478615 v -3.478615 h 0.47745 v 4.340518 h -0.39064 l -2.80274,-3.559225 v 3.559225 z"
         style="font-weight:normal;-inkscape-font-specification:'Gotham Pro';stroke:#ffffff;stroke-linecap:round;stroke-linejoin:round"
         id="path6813" />
      <path
         d="m 185.47749,48.688389 v -4.340518 h 0.48986 v 4.340518 z"
         style="font-weight:normal;-inkscape-font-specification:'Gotham Pro';stroke:#ffffff;stroke-linecap:round;stroke-linejoin:round"
         id="path6815" />
      <path
         d="m 189.2432,48.688389 v -3.887864 h -1.45717 v -0.452654 h 3.41041 v 0.452654 h -1.45718 v 3.887864 z"
         style="font-weight:normal;-inkscape-font-specification:'Gotham Pro';stroke:#ffffff;stroke-linecap:round;stroke-linejoin:round"
         id="path6817" />
      <path
         d="m 192.97172,48.688389 v -4.340518 h 3.13757 v 0.446453 h -2.64772 v 1.481977 h 2.36869 v 0.446453 h -2.36869 v 1.519182 h 2.67872 v 0.446453 z"
         style="font-weight:normal;-inkscape-font-specification:'Gotham Pro';stroke:#ffffff;stroke-linecap:round;stroke-linejoin:round"
         id="path6819" />
      <path
         d="m 197.98378,48.688389 v -4.340518 h 0.48985 v 3.887864 h 2.4431 v 0.452654 z"
         style="font-weight:normal;-inkscape-font-specification:'Gotham Pro';stroke:#ffffff;stroke-linecap:round;stroke-linejoin:round"
         id="path6821" />
      <path
         d="m 203.23147,48.688389 v -1.717605 l -1.80442,-2.622913 h 0.59528 l 1.46337,2.170259 1.47578,-2.170259 h 0.57046 l -1.80441,2.616712 v 1.723806 z"
         style="font-weight:normal;-inkscape-font-specification:'Gotham Pro';stroke:#ffffff;stroke-linecap:round;stroke-linejoin:round"
         id="path6823" />
      <path
         d="m 211.03572,48.688389 v -3.887864 h -1.45717 v -0.452654 h 3.4104 v 0.452654 h -1.45717 v 3.887864 z"
         style="font-weight:normal;-inkscape-font-specification:'Gotham Pro';stroke:#ffffff;stroke-linecap:round;stroke-linejoin:round"
         id="path6825" />
      <path
         d="m 216.12219,48.688389 v -1.717605 l -1.80441,-2.622913 h 0.59527 l 1.46337,2.170259 1.47578,-2.170259 h 0.57047 l -1.80442,2.616712 v 1.723806 z"
         style="font-weight:normal;-inkscape-font-specification:'Gotham Pro';stroke:#ffffff;stroke-linecap:round;stroke-linejoin:round"
         id="path6827" />
      <path
         d="m 220.06153,48.688389 v -4.340518 h 1.62459 q 0.74409,0 1.18434,0.372044 0.44025,0.372045 0.44025,1.016922 0,0.67588 -0.48985,1.047925 -0.48366,0.372044 -1.21535,0.372044 h -1.05412 v 1.531583 z m 0.48986,-1.978036 h 1.07272 q 0.53947,0 0.86191,-0.260431 0.32864,-0.266632 0.32864,-0.706885 0,-0.452654 -0.31624,-0.694482 -0.31004,-0.24803 -0.8495,-0.24803 h -1.09753 z"
         style="font-weight:normal;-inkscape-font-specification:'Gotham Pro';stroke:#ffffff;stroke-linecap:round;stroke-linejoin:round"
         id="path6829" />
      <path
         d="m 225.06118,48.688389 v -4.340518 h 3.13758 v 0.446453 h -2.64772 v 1.481977 h 2.36868 v 0.446453 h -2.36868 v 1.519182 h 2.67872 v 0.446453 z"
         style="font-weight:normal;-inkscape-font-specification:'Gotham Pro';stroke:#ffffff;stroke-linecap:round;stroke-linejoin:round"
         id="path6831" />
      <path
         d="m 230.07324,48.688389 v -4.340518 h 1.50678 q 1.01692,0 1.6618,0.620074 0.64488,0.613873 0.64488,1.550185 0,0.930111 -0.65108,1.550185 -0.64488,0.620074 -1.6556,0.620074 z m 0.48986,-0.452654 h 1.01692 q 0.8123,0 1.30216,-0.483658 0.49606,-0.489858 0.49606,-1.233947 0,-0.737888 -0.49606,-1.227747 -0.49606,-0.489858 -1.30216,-0.489858 h -1.01692 z"
         style="font-weight:normal;-inkscape-font-specification:'Gotham Pro';stroke:#ffffff;stroke-linecap:round;stroke-linejoin:round"
         id="path6833" />
    </g>
  </g>
</svg>
